<?xml version="1.0" encoding="UTF-8"?>
<svg id="Layer_1" xmlns="http://www.w3.org/2000/svg" version="1.1" viewBox="0 0 500 436.7">
  <!-- Generator: Adobe Illustrator 29.6.1, SVG Export Plug-In . SVG Version: 2.1.1 Build 9)  -->
  <defs>
    <style>
      .st0 {
        fill: #fad66a;
      }

      .st1 {
        fill: #f3b51a;
      }
    </style>
  </defs>
  <path class="st0" d="M101.8,38.7c14-1.8,75.2,103.6,44.9,86.7-12.1-6.8-79.4-82.2-44.9-86.7Z"/>
  <path class="st0" d="M395.5,415.6c-13.8,3-83.8-96.8-52.2-82.5,12.7,5.7,86.1,75.1,52.2,82.5Z"/>
  <path class="st0" d="M440.2,83.1c7.9-.9,14.6,2.3,15.7,10.3,3.3,22.7-111.3,82-80.5,40.5,3.7-4.9,57.5-49.9,64.7-50.7Z"/>
  <path class="st1" d="M355.7,186.6c10.4,3.6,18.1,16.9,10.1,26.3-55.6,62.7-103.8,140.4-160,201.5-4.1,4.5-7.8,10.5-14.2,11.3s-1.8,0-2.5-.4c-5.3-2.6-8-8-7.9-13.9s0-.7.2-1.1c2-7,22.5-79.5,23.6-83.4s0-.2,0-.3l10.5-52.6c.6-2.9-.1-5.9-1.9-8.3h0c-.3-.4-.7-.8-1.1-1.1-15.7-9.7-67.7-4.2-69.9-25.2-.4-3.4.8-6.8,2.9-9.4,44-56.4,87.7-113.3,132.9-168.8,5.7-7,38.7-48.7,42.1-49.8,5.7-1.8,10.6.6,12.8,5.1s1.2,4.9.7,7.4c-7.2,31.7-17.7,63-25.5,94.4-2,8.2-5.4,16.5-7.3,24.8-1.2,5-10.9,33.1-1,34.7,15.4,2.5,42.3,4.4,55.5,8.9Z"/>
  <path class="st0" d="M8.2,183.4c8.2-11.5,125.2,10.5,94.1,26-6.3,3.1-114.2,2.3-94.1-26Z"/>
  <path class="st0" d="M397.5,242.6c-4.8-13.3,114.2-2.3,94.1,26-8.2,11.5-89.5-13-94.1-26Z"/>
  <path class="st0" d="M68.2,355c-7.9.3-14.4-3.4-14.9-11.4-1.6-22.9,117.1-73.5,83.3-34.4-4,4.6-61.1,45.5-68.3,45.8Z"/>
</svg>