<svg id="Capa_1" enable-background="new 0 0 512 512" height="512" viewBox="0 0 512 512" width="512" xmlns="http://www.w3.org/2000/svg"><g><g><g><path d="m90.292 421.708c-2.544-2.544-4.118-6.06-4.118-9.942v-255.591c0-7.595 5.836-14.152 13.424-14.487 8.055-.355 14.697 6.07 14.697 14.047v241.972h234.208c7.596 0 14.153 5.836 14.488 13.424.355 8.055-6.07 14.696-14.046 14.696h-248.709c-3.885-.001-7.4-1.575-9.944-4.119z" fill="#fff2a5"/><path d="m329.92 495.76-22.536-22.536c-8.282-8.282-8.282-21.709 0-29.991 63.786-63.786 62.158-169.202-3.629-234.989s-171.203-67.415-234.989-3.629c-8.282 8.282-21.709 8.282-29.991 0l-22.535-22.535c-8.282-8.282-8.282-21.709 0-29.991s21.709-8.282 29.991 0l8.316 8.316c36.784-29.849 82.651-45.72 131.253-45.054 55.603.762 108.145 23.101 147.946 62.903 39.802 39.802 62.142 92.344 62.903 147.946.666 48.602-15.205 94.469-45.054 131.253l8.316 8.316c8.282 8.282 8.282 21.709 0 29.991s-21.709 8.282-29.991 0z" fill="#c37777"/><path d="m326.22 246.046-60.267-60.267c-7.694-7.694-7.694-20.169 0-27.863l16.762-16.762c7.694-7.694 20.169-7.694 27.863 0l60.267 60.267c7.694 7.694 7.694 20.169 0 27.863l-16.762 16.761c-7.694 7.696-20.168 7.696-27.863.001z" fill="#ffe35c"/><path d="m49.599 377.548-36.596 36.596c-4.686 4.686-2.005 12.71 4.556 13.638l55.759 7.888c1.563.221 2.791 1.449 3.012 3.012l7.888 55.758c.928 6.561 8.953 9.242 13.638 4.557l36.596-36.596c9.975-9.975 14.68-24.058 12.704-38.025l-6.531-46.17c-.501-3.544-3.287-6.329-6.831-6.831l-46.17-6.531c-13.967-1.976-28.051 2.73-38.025 12.704z" fill="#00ebc4"/><path d="m48.942 463.058c-7.201-7.201-7.201-18.877 0-26.078l300.503-300.502c7.201-7.201 18.877-7.201 26.078 0 7.201 7.201 7.201 18.877 0 26.078l-300.503 300.502c-7.201 7.201-18.877 7.201-26.078 0z" fill="#ffddb6"/><path d="m427.166 66.257-80.714 21.627c-11.278 3.022-15.056 17.12-6.799 25.376l59.086 59.086c8.256 8.256 22.354 4.479 25.376-6.799l21.627-80.714c3.023-11.277-7.297-21.597-18.576-18.576z" fill="#00ebc4"/></g><g><path d="m351.594 457.453c29.849-36.784 45.72-82.651 45.055-131.253-.471-34.439-9.235-67.697-25.289-97.485-.175.188-.332.387-.515.57l-16.761 16.761c-5.127 5.127-12.373 6.818-18.918 5.111 32.47 62.825 23.429 140.865-27.782 192.076-8.282 8.282-8.282 21.709 0 29.991l22.536 22.536c8.282 8.282 21.709 8.282 29.991 0s8.282-21.709 0-29.991z" fill="#ba5677"/><path d="m354.932 185.51-44.624 44.624 15.912 15.912c7.694 7.694 20.169 7.694 27.863 0l16.761-16.761c7.694-7.694 7.694-20.169 0-27.863z" fill="#ffac62"/><path d="m143.067 395.475-63.822 63.821 4.972 35.144c.928 6.561 8.953 9.242 13.639 4.557l36.596-36.596c9.975-9.975 14.68-24.058 12.704-38.025z" fill="#45b1c6"/><path d="m332.332 397.706h-185.12v28.121h176.235z" fill="#ffa7b8"/></g><g fill="#4e0325"><path d="m448.919 63.082c-6.445-6.444-15.546-8.882-24.352-6.525l-80.713 21.627c-8.803 2.359-15.468 9.023-17.827 17.826-2.36 8.803.079 17.907 6.524 24.351l9.403 9.403-14.281 14.281-9.993-9.993c-9.505-9.504-23.895-11.214-35.164-5.137-29.833-14.991-63.11-23.149-96.579-23.608-47.999-.648-92.956 13.74-130.555 41.728l-2.05-2.05c-12.184-12.184-32.008-12.185-44.194 0-12.184 12.185-12.184 32.01 0 44.194l22.535 22.536c6.092 6.092 14.095 9.138 22.097 9.138 6.449 0 12.895-1.981 18.343-5.936v140.266c-11.09 1.909-21.524 7.169-29.616 15.262l-36.595 36.597c-4.877 4.877-6.55 11.97-4.364 18.512s7.786 11.206 14.615 12.172l19.018 2.69c-3.58 10.046-1.36 21.714 6.668 29.743 5.381 5.38 12.533 8.342 20.141 8.342 3.326 0 6.564-.566 9.605-1.653l2.688 18.997c.965 6.83 5.63 12.43 12.171 14.615 1.9.635 3.846.944 5.772.944 4.703 0 9.28-1.847 12.74-5.307l36.596-36.596c8.092-8.093 13.353-18.526 15.262-29.616h140.266c-8.863 12.211-7.798 29.438 3.202 40.439l22.536 22.536c6.092 6.092 14.095 9.138 22.098 9.138 8.002 0 16.004-3.046 22.097-9.138 12.184-12.185 12.184-32.009 0-44.194l-2.051-2.05c27.989-37.6 42.387-82.54 41.729-130.555-.458-33.467-8.618-66.746-23.608-96.578 6.078-11.269 4.369-25.659-5.137-35.165l-9.993-9.993 14.282-14.282 9.403 9.403c4.827 4.827 11.146 7.407 17.713 7.407 2.2 0 4.43-.29 6.639-.882 8.803-2.359 15.468-9.023 17.826-17.826l21.628-80.714c2.359-8.801-.081-17.905-6.525-24.349zm-145.442 85.175 9.993 9.992-30.421 30.421-9.993-9.993c-3.766-3.766-3.766-9.894 0-13.66l16.762-16.761c3.765-3.764 9.892-3.766 13.659.001zm-211.278 49.34c4.53-3.376 9.226-6.469 14.06-9.282v169.022l-14.06-1.989zm34.147-19.041c39.619-15.721 85.49-14.464 126.397 5.446 1.438 3.221 3.47 6.24 6.109 8.879l9.993 9.993-142.499 142.498zm-72.575 22.228c-2.982 0-5.785-1.161-7.894-3.269l-22.535-22.536c-4.353-4.353-4.353-11.435 0-15.788 2.109-2.109 4.912-3.27 7.894-3.27 2.981 0 5.785 1.161 7.893 3.27l8.316 8.316c3.638 3.637 9.437 3.937 13.43.697 35.296-28.641 78.443-43.428 124.788-42.811 27.763.38 55.381 6.579 80.605 18.007l-7.416 7.415c-3.159 3.159-5.451 6.86-6.889 10.804-65.645-27.423-140.692-13.71-190.299 35.895-2.109 2.108-4.912 3.27-7.893 3.27zm2.929 183.866c7.699-7.7 18.731-11.388 29.517-9.862l9.384 1.328-46.049 46.049-26.604-3.763zm70.65 70.649-33.751 33.752-3.764-26.605 46.049-46.049 1.328 9.385c1.525 10.783-2.162 21.818-9.862 29.517zm181.776-212.144 9.993 9.993c2.642 2.642 5.664 4.675 8.888 6.113 19.764 40.59 21.184 85.999 5.859 125.388h-166.235zm5.284 176.646h-157.758l-2.131-15.065h169.767c-2.969 5.188-6.264 10.219-9.878 15.065zm29.386 31.324c-3.241 3.995-2.941 9.793.696 13.43l8.317 8.316c2.109 2.108 3.27 4.912 3.27 7.893 0 2.982-1.161 5.786-3.27 7.894-4.353 4.355-11.435 4.353-15.787 0l-22.536-22.536c-2.109-2.108-3.27-4.912-3.27-7.894s1.161-5.785 3.27-7.893c26.293-26.294 42.917-59.853 48.072-97.051 4.397-31.724.189-63.685-12.169-93.25 3.941-1.438 7.64-3.729 10.797-6.886l7.417-7.417c11.427 25.224 17.625 52.844 18.005 80.607.633 46.34-14.171 89.491-42.812 124.787zm19.947-242.601c3.766 3.766 3.766 9.893 0 13.66l-16.761 16.761c-3.767 3.767-9.894 3.766-13.659 0l-9.993-9.993 30.421-30.421zm-295.825 247.432c-1.586 1.586-3.694 2.459-5.938 2.459-2.243 0-4.352-.873-5.938-2.459-3.274-3.274-3.274-8.601 0-11.875l300.114-300.113 11.874 11.875zm368.124-373.722-21.628 80.714c-.691 2.579-2.764 3.393-3.623 3.623-.86.23-3.062.561-4.95-1.327l-59.086-59.086c-1.888-1.888-1.556-4.09-1.326-4.95.229-.859 1.043-2.932 3.623-3.623l80.713-21.628c2.582-.691 4.322.698 4.95 1.326.63.631 2.018 2.372 1.327 4.951z"/><path d="m398.982 113.822-7.209 7.209c-2.745 2.745-2.745 7.197 0 9.942 1.373 1.373 3.173 2.059 4.971 2.059s3.599-.686 4.971-2.059l7.209-7.209c2.745-2.745 2.745-7.197 0-9.942s-7.196-2.745-9.942 0z"/></g></g><g><path d="m278.968 2.458-8.25 23.197c-.353.993-1.052 1.78-1.935 2.178l-20.61 9.285c-2.912 1.312-2.912 5.951 0 7.263l20.61 9.285c.882.398 1.582 1.185 1.935 2.178l8.25 23.197c1.165 3.277 5.287 3.277 6.453 0l8.25-23.197c.353-.993 1.052-1.78 1.935-2.178l20.61-9.285c2.912-1.312 2.912-5.951 0-7.263l-20.61-9.285c-.882-.398-1.582-1.185-1.935-2.178l-8.25-23.197c-1.165-3.277-5.287-3.277-6.453 0z" fill="#a2f4e3"/><path d="m457.418 234.946-6.12 17.207c-.262.737-.781 1.321-1.435 1.616l-15.288 6.888c-2.16.973-2.16 4.414 0 5.387l15.288 6.888c.655.295 1.173.879 1.435 1.615l6.12 17.207c.865 2.431 3.922 2.431 4.786 0l6.12-17.207c.262-.737.781-1.321 1.435-1.615l15.288-6.888c2.16-.973 2.16-4.414 0-5.387l-15.288-6.888c-.655-.295-1.173-.879-1.435-1.616l-6.12-17.207c-.864-2.431-3.921-2.431-4.786 0z" fill="#a2f4e3"/><g fill="#00ebc4"><path d="m475.972 173.325c0 9.949 8.065 18.014 18.014 18.014s18.014-8.065 18.014-18.014-8.065-18.014-18.014-18.014-18.014 8.066-18.014 18.014z"/><path d="m416.591 27.619c0 4.16 3.372 7.532 7.532 7.532s7.532-3.372 7.532-7.532-3.372-7.532-7.532-7.532c-4.16-.001-7.532 3.372-7.532 7.532z"/></g></g></g></svg>